<svg xmlns="http://www.w3.org/2000/svg" width="1280" height="640" aria-label="WhatsApp Receptionist — open-source AI receptionist that books real appointments on WhatsApp" role="img" viewBox="0 0 1280 640"><title>WhatsApp Receptionist · Crafted in Italy</title><defs><linearGradient id="bg-gradient" x1="0" x2="1280" y1="0" y2="640" gradientUnits="userSpaceOnUse"><stop offset="0" stop-color="#F8F6EE"/><stop offset="1" stop-color="#EAE3D2"/></linearGradient><linearGradient id="accent-gradient" x1="0" x2="0" y1="0" y2="640" gradientUnits="userSpaceOnUse"><stop offset="0" stop-color="#0F4F4A"/><stop offset="1" stop-color="#0A3935"/></linearGradient><linearGradient id="bubble-gradient" x1="0" x2="0" y1="0" y2="200" gradientUnits="userSpaceOnUse"><stop offset="0" stop-color="#1A6F68"/><stop offset="1" stop-color="#0F4F4A"/></linearGradient><pattern id="grain" width="4" height="4" patternUnits="userSpaceOnUse"><circle cx="1" cy="1" r=".4" fill="#0F4F4A" opacity=".05"/><circle cx="3" cy="3" r=".3" fill="#0F4F4A" opacity=".04"/></pattern></defs><rect width="1280" height="640" fill="url(#bg-gradient)"/><rect width="1280" height="640" fill="url(#grain)"/><rect width="560" height="640" x="720" y="0" fill="url(#accent-gradient)"/><g fill="#F5F1E8" opacity=".08"><circle cx="780" cy="80" r="2"/><circle cx="820" cy="80" r="2"/><circle cx="860" cy="80" r="2"/><circle cx="900" cy="80" r="2"/><circle cx="940" cy="80" r="2"/><circle cx="980" cy="80" r="2"/><circle cx="1020" cy="80" r="2"/><circle cx="1060" cy="80" r="2"/><circle cx="1100" cy="80" r="2"/><circle cx="1140" cy="80" r="2"/><circle cx="1180" cy="80" r="2"/><circle cx="1220" cy="80" r="2"/><circle cx="780" cy="120" r="2"/><circle cx="820" cy="120" r="2"/><circle cx="860" cy="120" r="2"/><circle cx="900" cy="120" r="2"/><circle cx="940" cy="120" r="2"/><circle cx="980" cy="120" r="2"/><circle cx="1020" cy="120" r="2"/><circle cx="1060" cy="120" r="2"/><circle cx="1100" cy="120" r="2"/><circle cx="1140" cy="120" r="2"/><circle cx="1180" cy="120" r="2"/><circle cx="1220" cy="120" r="2"/><circle cx="780" cy="560" r="2"/><circle cx="820" cy="560" r="2"/><circle cx="860" cy="560" r="2"/><circle cx="900" cy="560" r="2"/><circle cx="940" cy="560" r="2"/><circle cx="980" cy="560" r="2"/><circle cx="1020" cy="560" r="2"/><circle cx="1060" cy="560" r="2"/><circle cx="1100" cy="560" r="2"/><circle cx="1140" cy="560" r="2"/><circle cx="1180" cy="560" r="2"/><circle cx="1220" cy="560" r="2"/></g><g fill="#0F4F4A" font-family="Fraunces, Georgia, serif"><g fill="#5C6B68" font-family="Inter, system-ui, sans-serif" font-size="14" font-weight="500" letter-spacing="2"><text x="80" y="140">OPEN SOURCE · MIT · CRAFTED IN ITALY</text></g><text x="80" y="240" font-size="68" font-weight="600" letter-spacing="-2.5">WhatsApp</text><text x="80" y="316" font-size="68" font-style="italic" font-weight="400" letter-spacing="-2.5">Receptionist</text><rect width="48" height="3" x="80" y="346" fill="#0F4F4A"/><g fill="#2A3938" font-family="Inter, system-ui, sans-serif" font-size="20" font-weight="400"><text x="80" y="396">The open-source AI receptionist</text><text x="80" y="424">that books real appointments on WhatsApp.</text></g><g font-family="Inter, system-ui, sans-serif" font-size="13" font-weight="500" letter-spacing=".4"><g><rect width="92" height="32" x="80" y="468" fill="none" stroke="#0F4F4A" stroke-width="1.5" rx="16"/><text x="126" y="488" fill="#0F4F4A" text-anchor="middle">Next.js 15</text></g><g><rect width="120" height="32" x="182" y="468" fill="#0F4F4A" rx="16"/><text x="242" y="488" fill="#F5F1E8" text-anchor="middle">Anthropic Claude</text></g><g><rect width="86" height="32" x="312" y="468" fill="none" stroke="#0F4F4A" stroke-width="1.5" rx="16"/><text x="355" y="488" fill="#0F4F4A" text-anchor="middle">Supabase</text></g><g><rect width="100" height="32" x="408" y="468" fill="none" stroke="#0F4F4A" stroke-width="1.5" rx="16"/><text x="458" y="488" fill="#0F4F4A" text-anchor="middle">GDPR-ready</text></g></g><g fill="#5C6B68" font-family="Inter, system-ui, sans-serif" font-size="13"><text x="80" y="568">github.com/Hiberius/whatsapp-receptionist · MIT License</text></g></g><g transform="translate(900 180)"><rect width="320" height="280" x="-120" y="-20" fill="#F5F1E8" opacity=".06" rx="20"/><g transform="translate(-90 0)"><rect width="200" height="56" fill="#F5F1E8" opacity=".15" rx="14"/><text x="20" y="34" fill="#F5F1E8" font-family="Inter, system-ui, sans-serif" font-size="13">Salve, vorrei prenotare</text><text x="20" y="50" fill="#F5F1E8" font-family="Inter, system-ui, sans-serif" font-size="13">una visita per martedì</text></g><g transform="translate(20 80)"><rect width="220" height="86" fill="url(#bubble-gradient)" stroke="#F5F1E8" stroke-opacity=".25" stroke-width="1" rx="14"/><circle cx="20" cy="22" r="4" fill="#E8C56A"/><text x="34" y="26" fill="#E8C56A" font-family="Inter, system-ui, sans-serif" font-size="11" font-weight="600" letter-spacing="1">AI</text><text x="20" y="50" fill="#F5F1E8" font-family="Inter, system-ui, sans-serif" font-size="13">Certo. Ho disponibilità</text><text x="20" y="66" fill="#F5F1E8" font-family="Inter, system-ui, sans-serif" font-size="13">martedì alle 10:30 o 15:00.</text><text x="20" y="82" fill="#E8C56A" font-family="Inter, system-ui, sans-serif" font-size="13" font-weight="600">Quale preferisce?</text></g><g transform="translate(-90 200)"><rect width="60" height="24" fill="#F5F1E8" opacity=".15" rx="12"/><circle cx="18" cy="12" r="3" fill="#F5F1E8"/><circle cx="30" cy="12" r="3" fill="#F5F1E8" opacity=".6"/><circle cx="42" cy="12" r="3" fill="#F5F1E8" opacity=".3"/></g></g><g transform="translate(80 600)"><rect width="8" height="20" x="0" y="0" fill="#008C45"/><rect width="8" height="20" x="8" y="0" fill="#F5F1E8"/><rect width="8" height="20" x="16" y="0" fill="#CD212A"/><text x="36" y="15" fill="#5C6B68" font-family="Inter, system-ui, sans-serif" font-size="12" font-weight="500">Made in Italy</text></g></svg>