<svg xmlns="http://www.w3.org/2000/svg" width="1600" height="1000" aria-labelledby="title-a0 desc-a0" role="img" viewBox="0 0 1600 1000"><title id="title-a0">Segreteria sempre attiva</title><desc id="desc-a0">Assistente AI Ambrogio che gestisce messaggi e appuntamenti anche fuori orario</desc><defs><linearGradient id="bg-a0" x1="0" x2="1" y1="0" y2="1"><stop offset="0%" stop-color="#f8fafc"/><stop offset="46%" stop-color="#38c3b4"/><stop offset="100%" stop-color="#42938d"/></linearGradient><linearGradient id="primary-a0" x1="0" x2="1" y1="0" y2="1"><stop offset="0%" stop-color="#0f766e"/><stop offset="100%" stop-color="#14b8a6"/></linearGradient><linearGradient id="accent-a0" x1="0" x2="1" y1="0" y2="1"><stop offset="0%" stop-color="#f97316"/><stop offset="100%" stop-color="#14b8a6"/></linearGradient><radialGradient id="glow-a0" cx="50%" cy="35%" r="70%"><stop offset="0%" stop-color="#14b8a6" stop-opacity=".45"/><stop offset="70%" stop-color="#14b8a6" stop-opacity=".08"/><stop offset="100%" stop-color="#14b8a6" stop-opacity="0"/></radialGradient><filter id="softShadow-a0" width="140%" height="150%" x="-20%" y="-20%"><feDropShadow dx="0" dy="24" flood-color="#0f172a" flood-opacity=".16" stdDeviation="28"/></filter><filter id="smallShadow-a0" width="140%" height="150%" x="-20%" y="-20%"><feDropShadow dx="0" dy="10" flood-color="#0f172a" flood-opacity=".12" stdDeviation="12"/></filter><pattern id="grid-a0" width="58" height="58" patternUnits="userSpaceOnUse"><path fill="none" stroke="#0f172a" stroke-opacity=".055" stroke-width="1" d="M 58 0 L 0 0 0 58"/></pattern><pattern id="dots-a0" width="34" height="34" patternUnits="userSpaceOnUse"><circle cx="4" cy="4" r="2" fill="#0f172a" opacity=".06"/></pattern><clipPath id="phoneClip-a0"><rect width="360" height="700" x="0" y="0" rx="48"/></clipPath></defs><rect width="1600" height="1000" fill="url(#bg-a0)"/><rect width="1600" height="1000" fill="url(#grid-a0)"/><circle cx="1240" cy="180" r="360" fill="url(#glow-a0)"/><circle cx="260" cy="820" r="300" fill="#f97316" opacity=".07"/><g font-family="Inter, ui-sans-serif, system-ui, -apple-system, BlinkMacSystemFont, 'Segoe UI', sans-serif"><g transform="translate(120 120)"><text x="0" y="70" fill="#111827" font-size="74" font-weight="850" opacity="1">Ambrogio.ai</text><text x="0" y="128" fill="#111827" font-size="38" font-weight="720" opacity=".72">risponde quando lo studio dorme</text><g filter="url(#smallShadow-a0)"><rect width="310" height="58" x="0" y="178" fill="url(#primary-a0)" opacity="1" rx="29"/><text x="28" y="217" fill="#fff" font-size="22" font-weight="750" opacity="1">24/7 front desk AI</text></g><g filter="url(#smallShadow-a0)"><rect width="300" height="58" x="330" y="178" fill="#fff" opacity="1" rx="29"/><text x="358" y="217" fill="#0f766e" font-size="22" font-weight="750" opacity="1">WhatsApp + vocali</text></g><rect width="540" height="320" x="0" y="300" fill="#fff" filter="url(#softShadow-a0)" opacity=".82" rx="42"/><g><rect width="70" height="56" x="50" y="390" fill="#e2e8f0" opacity=".75" rx="16"/><rect width="70" height="56" x="142" y="390" fill="#e2e8f0" opacity=".75" rx="16"/><rect width="70" height="56" x="234" y="390" fill="#e2e8f0" opacity=".75" rx="16"/><rect width="70" height="56" x="326" y="390" fill="#e2e8f0" opacity=".75" rx="16"/><rect width="70" height="56" x="418" y="390" fill="#e2e8f0" opacity=".75" rx="16"/><rect width="70" height="56" x="50" y="474" fill="#e2e8f0" opacity=".75" rx="16"/><rect width="70" height="56" x="142" y="474" fill="#e2e8f0" opacity=".75" rx="16"/><rect width="70" height="56" x="234" y="474" fill="url(#primary-a0)" opacity="1" rx="16"/><rect width="70" height="56" x="326" y="474" fill="#e2e8f0" opacity=".75" rx="16"/><rect width="70" height="56" x="418" y="474" fill="#e2e8f0" opacity=".75" rx="16"/><rect width="70" height="56" x="50" y="558" fill="#e2e8f0" opacity=".75" rx="16"/><rect width="70" height="56" x="142" y="558" fill="#e2e8f0" opacity=".75" rx="16"/><rect width="70" height="56" x="234" y="558" fill="#e2e8f0" opacity=".75" rx="16"/><rect width="70" height="56" x="326" y="558" fill="#e2e8f0" opacity=".75" rx="16"/><rect width="70" height="56" x="418" y="558" fill="url(#primary-a0)" opacity="1" rx="16"/><rect width="70" height="56" x="50" y="642" fill="#e2e8f0" opacity=".75" rx="16"/><rect width="70" height="56" x="142" y="642" fill="url(#primary-a0)" opacity="1" rx="16"/><rect width="70" height="56" x="234" y="642" fill="#e2e8f0" opacity=".75" rx="16"/><rect width="70" height="56" x="326" y="642" fill="#e2e8f0" opacity=".75" rx="16"/><rect width="70" height="56" x="418" y="642" fill="#e2e8f0" opacity=".75" rx="16"/></g><text x="52" y="358" fill="#111827" font-size="34" font-weight="800" opacity="1">Slot confermati</text></g><g filter="url(#softShadow-a0)" transform="translate(940 110) scale(0.92)"><rect width="400" height="760" x="0" y="0" fill="#0f172a" rx="64"/><rect width="356" height="716" x="22" y="22" fill="#f8fafc" rx="50"/><rect width="136" height="24" x="132" y="38" fill="#0f172a" rx="12"/><g clip-path="url(#phoneClip-a0)" transform="translate(22 22)"><rect width="356" height="716" fill="#f1f5f9"/><rect width="356" height="90" fill="url(#primary-a0)"/><circle cx="52" cy="48" r="24" fill="#fff" opacity=".92"/><text x="92" y="56" fill="#fff" font-size="25" font-weight="800">Ambrogio</text><g><rect width="288" height="94" x="28" y="130" fill="#fff" filter="url(#smallShadow-a0)" rx="24"/><text x="52" y="166" fill="#0f172a" font-size="22" font-weight="650">Buonasera, vorrei</text><text x="52" y="194" fill="#0f172a" font-size="22" font-weight="650">prenotare</text></g><g><rect width="246" height="126" x="82" y="250" fill="#0f766e" filter="url(#smallShadow-a0)" rx="24"/><text x="106" y="286" fill="#fff" font-size="22" font-weight="650">Certo. Ho 3 slot liberi</text><text x="106" y="314" fill="#fff" font-size="22" font-weight="650">domani.</text></g><g><rect width="300" height="112" x="28" y="405" fill="#fff" filter="url(#smallShadow-a0)" rx="24"/><text x="52" y="441" fill="#0f172a" font-size="22" font-weight="650">Prendo quello delle</text><text x="52" y="469" fill="#0f172a" font-size="22" font-weight="650">10:30</text></g><g><rect width="256" height="82" x="72" y="546" fill="#0f766e" filter="url(#smallShadow-a0)" rx="24"/><text x="96" y="582" fill="#fff" font-size="22" font-weight="650">Perfetto. Prenotato.</text></g></g></g><path fill="none" stroke="url(#accent-a0)" stroke-linecap="round" stroke-width="10" d="M690 500 C820 410 850 320 950 280" opacity=".8"/><circle cx="706" cy="494" r="16" fill="#f97316"/><circle cx="950" cy="280" r="16" fill="#14b8a6"/></g></svg>