<svg xmlns="http://www.w3.org/2000/svg" width="1600" height="1000" aria-labelledby="title-a4 desc-a4" role="img" viewBox="0 0 1600 1000"><title id="title-a4">Privacy e DPA</title><desc id="desc-a4">Dati cliente protetti in un vault privacy-first con audit log</desc><defs><linearGradient id="bg-a4" x1="0" x2="1" y1="0" y2="1"><stop offset="0%" stop-color="#f8fafc"/><stop offset="46%" stop-color="#97d33b"/><stop offset="100%" stop-color="#3b816e"/></linearGradient><linearGradient id="primary-a4" x1="0" x2="1" y1="0" y2="1"><stop offset="0%" stop-color="#065f46"/><stop offset="100%" stop-color="#84cc16"/></linearGradient><linearGradient id="accent-a4" x1="0" x2="1" y1="0" y2="1"><stop offset="0%" stop-color="#0ea5e9"/><stop offset="100%" stop-color="#84cc16"/></linearGradient><radialGradient id="glow-a4" cx="50%" cy="35%" r="70%"><stop offset="0%" stop-color="#84cc16" stop-opacity=".45"/><stop offset="70%" stop-color="#84cc16" stop-opacity=".08"/><stop offset="100%" stop-color="#84cc16" stop-opacity="0"/></radialGradient><filter id="softShadow-a4" width="140%" height="150%" x="-20%" y="-20%"><feDropShadow dx="0" dy="24" flood-color="#0f172a" flood-opacity=".16" stdDeviation="28"/></filter><filter id="smallShadow-a4" width="140%" height="150%" x="-20%" y="-20%"><feDropShadow dx="0" dy="10" flood-color="#0f172a" flood-opacity=".12" stdDeviation="12"/></filter><pattern id="grid-a4" width="58" height="58" patternUnits="userSpaceOnUse"><path fill="none" stroke="#0f172a" stroke-opacity=".055" stroke-width="1" d="M 58 0 L 0 0 0 58"/></pattern><pattern id="dots-a4" width="34" height="34" patternUnits="userSpaceOnUse"><circle cx="4" cy="4" r="2" fill="#0f172a" opacity=".06"/></pattern><clipPath id="phoneClip-a4"><rect width="360" height="700" x="0" y="0" rx="48"/></clipPath></defs><rect width="1600" height="1000" fill="url(#bg-a4)"/><rect width="1600" height="1000" fill="url(#grid-a4)"/><circle cx="1240" cy="260" r="360" fill="url(#glow-a4)"/><circle cx="320" cy="820" r="300" fill="#0ea5e9" opacity=".07"/><g font-family="Inter, ui-sans-serif, system-ui, -apple-system, BlinkMacSystemFont, 'Segoe UI', sans-serif"><g transform="translate(170 120)"><text x="0" y="70" fill="#111827" font-size="72" font-weight="880" opacity="1">Privacy-first</text><text x="0" y="126" fill="#111827" font-size="36" font-weight="700" opacity=".68">DPA, audit log e dati separati</text><rect width="520" height="420" x="0" y="225" fill="#fff" filter="url(#softShadow-a4)" opacity=".86" rx="54"/><path fill="url(#primary-a4)" d="M260 310 L412 374 V470 C412 560 330 604 260 624 C190 604 108 560 108 470 V374 Z"/><path fill="none" stroke="#fff" stroke-linecap="round" stroke-linejoin="round" stroke-width="22" d="M206 462 L246 502 L326 414"/></g><g transform="translate(820 150)"><rect width="260" height="150" x="0" y="0" fill="#fff" filter="url(#smallShadow-a4)" opacity=".86" rx="34"/><text x="34" y="74" fill="#111827" font-size="32" font-weight="820" opacity="1">Tenant A</text><rect width="150" height="14" x="34" y="94" fill="#065f46" opacity=".55" rx="7"/><rect width="260" height="150" x="300" y="0" fill="#fff" filter="url(#smallShadow-a4)" opacity=".86" rx="34"/><text x="334" y="74" fill="#111827" font-size="32" font-weight="820" opacity="1">Tenant B</text><rect width="150" height="14" x="334" y="94" fill="#0ea5e9" opacity=".55" rx="7"/><rect width="260" height="150" x="0" y="190" fill="#fff" filter="url(#smallShadow-a4)" opacity=".86" rx="34"/><text x="34" y="264" fill="#111827" font-size="32" font-weight="820" opacity="1">Audit log</text><rect width="150" height="14" x="34" y="284" fill="#065f46" opacity=".55" rx="7"/><rect width="260" height="150" x="300" y="190" fill="#fff" filter="url(#smallShadow-a4)" opacity=".86" rx="34"/><text x="334" y="264" fill="#111827" font-size="32" font-weight="820" opacity="1">DPA</text><rect width="150" height="14" x="334" y="284" fill="#0ea5e9" opacity=".55" rx="7"/></g></g></svg>