<svg xmlns="http://www.w3.org/2000/svg" width="1600" height="1000" aria-labelledby="title-a17 desc-a17" role="img" viewBox="0 0 1600 1000"><title id="title-a17">Infrastruttura webhook</title><desc id="desc-a17">Webhook WhatsApp, database e AI engine collegati in modo sicuro</desc><defs><linearGradient id="bg-a17" x1="0" x2="1" y1="0" y2="1"><stop offset="0%" stop-color="#f8fafc"/><stop offset="46%" stop-color="#57c7f9"/><stop offset="100%" stop-color="#5384ef"/></linearGradient><linearGradient id="primary-a17" x1="0" x2="1" y1="0" y2="1"><stop offset="0%" stop-color="#2563eb"/><stop offset="100%" stop-color="#38bdf8"/></linearGradient><linearGradient id="accent-a17" x1="0" x2="1" y1="0" y2="1"><stop offset="0%" stop-color="#10b981"/><stop offset="100%" stop-color="#38bdf8"/></linearGradient><radialGradient id="glow-a17" cx="50%" cy="35%" r="70%"><stop offset="0%" stop-color="#38bdf8" stop-opacity=".45"/><stop offset="70%" stop-color="#38bdf8" stop-opacity=".08"/><stop offset="100%" stop-color="#38bdf8" stop-opacity="0"/></radialGradient><filter id="softShadow-a17" width="140%" height="150%" x="-20%" y="-20%"><feDropShadow dx="0" dy="24" flood-color="#0f172a" flood-opacity=".16" stdDeviation="28"/></filter><filter id="smallShadow-a17" width="140%" height="150%" x="-20%" y="-20%"><feDropShadow dx="0" dy="10" flood-color="#0f172a" flood-opacity=".12" stdDeviation="12"/></filter><pattern id="grid-a17" width="58" height="58" patternUnits="userSpaceOnUse"><path fill="none" stroke="#0f172a" stroke-opacity=".055" stroke-width="1" d="M 58 0 L 0 0 0 58"/></pattern><pattern id="dots-a17" width="34" height="34" patternUnits="userSpaceOnUse"><circle cx="4" cy="4" r="2" fill="#0f172a" opacity=".06"/></pattern><clipPath id="phoneClip-a17"><rect width="360" height="700" x="0" y="0" rx="48"/></clipPath></defs><rect width="1600" height="1000" fill="url(#bg-a17)"/><rect width="1600" height="1000" fill="url(#grid-a17)"/><circle cx="1170" cy="340" r="360" fill="url(#glow-a17)"/><circle cx="380" cy="780" r="300" fill="#10b981" opacity=".07"/><g font-family="Inter, ui-sans-serif, system-ui, -apple-system, BlinkMacSystemFont, 'Segoe UI', sans-serif"><text x="120" y="130" fill="#111827" font-size="72" font-weight="880" opacity="1">Webhook</text><text x="120" y="188" fill="#111827" font-size="42" font-weight="730" opacity=".7">sicuri, idempotenti, tracciati</text><g transform="translate(150 370)"><rect width="220" height="160" x="0" y="0" fill="#fff" filter="url(#softShadow-a0)" opacity=".9" rx="42"/><circle cx="70" cy="80" r="36" fill="#2563eb" opacity=".86"/><text x="122" y="92" fill="#0f172a" font-size="30" font-weight="850">WhatsApp</text></g><g transform="translate(540 300)"><rect width="220" height="160" x="0" y="0" fill="#fff" filter="url(#softShadow-a0)" opacity=".9" rx="42"/><circle cx="70" cy="80" r="36" fill="#10b981" opacity=".86"/><text x="122" y="92" fill="#0f172a" font-size="30" font-weight="850">API</text></g><g transform="translate(890 370)"><rect width="220" height="160" x="0" y="0" fill="#fff" filter="url(#softShadow-a0)" opacity=".9" rx="42"/><circle cx="70" cy="80" r="36" fill="#38bdf8" opacity=".86"/><text x="122" y="92" fill="#0f172a" font-size="30" font-weight="850">AI</text></g><g transform="translate(1210 300)"><rect width="220" height="160" x="0" y="0" fill="#fff" filter="url(#softShadow-a0)" opacity=".9" rx="42"/><circle cx="70" cy="80" r="36" fill="#0f172a" opacity=".86"/><text x="122" y="92" fill="#0f172a" font-size="30" font-weight="850">DB</text></g><path fill="none" stroke="url(#accent-a17)" stroke-linecap="round" stroke-width="12" d="M350 460 C450 405 470 405 540 400"/><path fill="none" stroke="url(#accent-a17)" stroke-linecap="round" stroke-width="12" d="M740 400 C820 405 840 430 890 460"/><path fill="none" stroke="url(#accent-a17)" stroke-linecap="round" stroke-width="12" d="M1090 460 C1160 430 1170 405 1210 400"/><rect width="900" height="90" x="350" y="690" fill="#fff" filter="url(#softShadow-a17)" opacity=".86" rx="45"/><text x="415" y="748" fill="#111827" font-size="30" font-weight="800" opacity="1">idempotency key / tenant resolver / audit log</text></g></svg>